<?xml version="1.0" encoding="UTF-8" standalone="no"?>
<svg
   version="1.0"
   width="792.000000pt"
   height="792.000000pt"
   viewBox="0 0 792.000000 792.000000"
   preserveAspectRatio="xMidYMid meet"
   id="svg6"
   sodipodi:docname="GYM.svg"
   inkscape:version="1.3.2 (091e20e, 2023-11-25, custom)"
   xmlns:inkscape="http://www.inkscape.org/namespaces/inkscape"
   xmlns:sodipodi="http://sodipodi.sourceforge.net/DTD/sodipodi-0.dtd"
   xmlns="http://www.w3.org/2000/svg"
   xmlns:svg="http://www.w3.org/2000/svg">
  <defs
     id="defs6" />
  <sodipodi:namedview
     id="namedview6"
     pagecolor="#505050"
     bordercolor="#eeeeee"
     borderopacity="1"
     inkscape:showpageshadow="0"
     inkscape:pageopacity="0"
     inkscape:pagecheckerboard="0"
     inkscape:deskcolor="#505050"
     inkscape:document-units="pt"
     inkscape:zoom="1.0738636"
     inkscape:cx="528"
     inkscape:cy="304.50794"
     inkscape:window-width="2560"
     inkscape:window-height="1369"
     inkscape:window-x="-8"
     inkscape:window-y="-8"
     inkscape:window-maximized="1"
     inkscape:current-layer="svg6" />
  <g
     transform="translate(0.000000,792.000000) scale(0.100000,-0.100000)"
     fill="#000000"
     stroke="none"
     id="g6"
     style="fill:#00373e">
    <path
       d="M0 3960 l0 -3960 3960 0 3960 0 0 3960 0 3960 -3960 0 -3960 0 0 -3960z m5616 2045 c85 -16 156 -49 221 -101 48 -39 133 -161 158 -228 10 -26 26 -48 37 -52 10 -3 65 2 123 12 87 15 114 16 167 6 176 -32 356 -186 414 -351 13 -36 34 -126 48 -199 13 -74 26 -136 29 -138 3 -3 46 -9 95 -14 99 -9 121 -17 169 -63 58 -55 81 -184 43 -244 -15 -22 -91 -80 -122 -92 -62 -24 -73 -69 -47 -191 80 -375 75 -476 -31 -631 -77 -112 -188 -191 -287 -204 -107 -13 -113 -15 -127 -43 -7 -15 -18 -71 -24 -125 -12 -107 -41 -178 -113 -274 -95 -127 -288 -222 -451 -223 -66 0 -201 39 -268 78 -57 33 -145 115 -178 166 -35 56 -85 211 -121 378 -66 298 -66 298 -106 298 -28 0 -267 -47 -310 -60 -16 -5 -93 -21 -170 -35 -77 -14 -189 -39 -250 -54 -151 -39 -318 -76 -455 -101 -210 -38 -465 -93 -630 -135 -52 -13 -124 -29 -160 -35 -36 -7 -71 -16 -77 -22 -20 -17 -15 -74 22 -259 81 -409 82 -440 20 -569 -36 -73 -61 -108 -118 -165 -76 -76 -131 -109 -237 -143 -93 -29 -138 -33 -227 -21 -122 16 -223 69 -311 164 -66 71 -89 106 -126 197 -13 34 -19 38 -51 38 -20 0 -50 -6 -68 -13 -76 -32 -214 -38 -287 -12 -66 23 -175 101 -226 160 -65 76 -96 156 -153 390 -29 115 -56 214 -62 221 -6 7 -50 13 -118 16 -114 3 -136 12 -162 60 -20 36 -28 113 -17 162 11 53 62 111 151 174 45 31 47 35 47 80 0 26 -12 88 -25 137 -31 109 -41 230 -26 309 25 132 111 266 221 344 43 31 77 44 155 62 55 13 106 28 113 33 7 6 12 34 12 76 1 178 92 364 221 452 241 163 529 149 712 -36 93 -94 115 -130 152 -249 33 -108 86 -331 100 -430 4 -27 16 -57 27 -68 27 -27 87 -21 403 41 117 23 167 35 310 74 81 23 243 56 490 102 111 20 321 65 520 110 83 19 197 43 254 55 57 11 110 25 118 31 26 22 14 119 -47 374 -71 304 -46 452 106 614 89 95 181 146 302 166 104 18 137 18 228 0z"
       id="path1"
       style="fill:#00373e" />
    <path
       d="M5427 5552 c-37 -41 -8 -280 84 -706 27 -127 59 -278 70 -336 76 -405 191 -912 250 -1108 26 -84 41 -97 105 -87 65 9 74 23 74 113 0 140 -81 559 -139 722 -19 53 -57 245 -107 535 -26 151 -37 204 -65 305 -20 72 -54 232 -63 298 -10 67 -75 256 -93 270 -26 19 -97 15 -116 -6z"
       id="path2"
       style="fill:#00373e" />
    <path
       d="M6171 5191 c-25 -25 -35 -95 -28 -185 9 -104 44 -298 72 -401 35 -128 82 -319 100 -406 41 -193 79 -269 137 -269 67 0 88 38 88 159 0 90 -16 183 -63 386 -20 83 -47 211 -62 285 -27 142 -62 278 -75 295 -4 6 -18 35 -31 65 -12 30 -29 63 -37 73 -20 23 -77 22 -101 -2z"
       id="path3"
       style="fill:#00373e" />
    <path
       d="M2253 4870 c-12 -5 -26 -18 -32 -28 -20 -37 -23 -125 -8 -192 8 -36 20 -101 27 -145 19 -130 47 -267 104 -500 48 -197 82 -357 137 -640 53 -280 147 -673 170 -717 23 -43 96 -46 139 -6 21 20 22 27 17 142 -2 73 -13 159 -27 216 -12 52 -39 169 -61 260 -51 215 -83 374 -144 725 -14 83 -43 222 -65 310 -21 88 -46 196 -55 240 -19 89 -70 255 -91 297 -23 44 -62 58 -111 38z"
       id="path4"
       style="fill:#00373e" />
    <path
       d="M4985 4386 c-109 -28 -252 -58 -505 -106 -146 -27 -319 -63 -385 -80 -66 -16 -205 -48 -310 -70 -104 -22 -313 -69 -464 -103 -316 -72 -310 -68 -291 -162 7 -35 18 -59 30 -65 31 -17 123 -11 242 14 62 14 223 46 358 71 135 26 316 64 402 85 87 22 282 64 433 94 152 31 311 65 355 76 44 11 123 29 176 40 53 10 107 26 120 35 23 15 25 21 22 98 l-3 82 -65 2 c-36 1 -87 -4 -115 -11z"
       id="path5"
       style="fill:#00373e" />
    <path
       d="M1709 4251 c-23 -18 -24 -24 -23 -148 0 -149 16 -241 103 -593 32 -129 66 -269 75 -310 10 -41 29 -106 44 -145 24 -62 31 -70 56 -73 40 -5 73 5 96 28 17 17 20 34 20 103 0 89 -27 265 -60 387 -11 41 -45 185 -76 320 -30 135 -66 272 -79 305 -13 33 -27 72 -31 88 -13 54 -80 75 -125 38z"
       id="path6"
       style="fill:#00373e" />
  </g>
  <path
     style="fill:#74d6e3;stroke-width:0.931217"
     d="m 350.13757,765.46136 c -21.87016,-4.41089 -40.66067,-19.3353 -51.00262,-40.50898 -2.37654,-4.86561 -4.92858,-9.57989 -5.67123,-10.47619 -1.67515,-2.02173 -5.60765,-2.0775 -12.26607,-0.17395 -19.86635,5.67952 -32.93854,5.50036 -45.01331,-0.6169 -13.49275,-6.83565 -26.65476,-19.19201 -32.0887,-30.12456 -4.3185,-8.6884 -5.95655,-13.75796 -12.35187,-38.22745 -7.77179,-29.73603 -8.19683,-31.07822 -10.17752,-32.13825 -0.96225,-0.51498 -7.67378,-1.33467 -14.91452,-1.82153 -15.41695,-1.03663 -17.81321,-2.02412 -21.28563,-8.77169 -3.1028,-6.02934 -3.40845,-18.59098 -0.59166,-24.31615 2.1735,-4.41765 10.76754,-13.22296 18.88694,-19.35124 l 5.8201,-4.39284 v -5.70113 c 0,-3.13561 -1.24423,-10.99319 -2.76495,-17.46128 -4.93219,-20.97811 -5.79417,-32.44636 -3.3173,-44.13492 2.72595,-12.86394 10.79979,-27.13868 20.92785,-37.00091 9.02073,-8.78398 14.29062,-11.5485 29.42525,-15.43614 7.14945,-1.83649 13.55161,-3.8727 14.22702,-4.52492 0.77412,-0.74753 1.52974,-5.28038 2.04426,-12.26319 1.15382,-15.65913 4.41801,-26.71317 11.29696,-38.25672 9.22816,-15.48573 26.74805,-27.61218 47.05039,-32.56608 8.60934,-2.10074 25.77685,-2.11 33.8301,-0.0183 17.1304,4.44943 34.64402,17.83111 44.2799,33.83308 5.20815,8.64898 12.8519,35.25992 18.9492,65.96972 3.92684,19.77804 5.01655,20.84558 19.53858,19.14107 14.65225,-1.7198 51.51737,-9.14056 74.24333,-14.9448 11.83543,-3.0228 37.81638,-8.69221 57.73545,-12.5987 30.79544,-6.03954 117.56384,-24.52408 129.33819,-27.55331 2.04868,-0.52707 4.24868,-1.63676 4.88889,-2.46599 2.59741,-3.36429 1.39426,-12.72906 -5.83083,-45.38454 -6.94315,-31.38122 -7.58936,-44.7951 -2.87113,-59.59788 3.09642,-9.71457 8.36851,-17.70045 18.19,-27.55324 12.86573,-12.90673 23.13897,-17.92003 42.95604,-20.96236 8.72659,-1.33972 11.45631,-1.40823 18.24865,-0.45803 26.71174,3.73679 42.33636,15.52451 55.72411,42.04009 2.21209,4.38126 4.70343,8.53147 5.5363,9.2227 1.27829,1.06087 3.90531,0.9295 16.85421,-0.84284 13.24966,-1.8135 16.19501,-1.95095 21.61547,-1.00875 20.48196,3.56024 41.5365,18.97595 52.18381,38.20793 3.75314,6.7792 6.14415,15.01882 10.41165,35.87932 1.94735,9.5191 3.71105,17.47788 3.91935,17.68617 0.20828,0.2083 5.76345,1.04245 12.34481,1.85368 6.58134,0.81123 13.3531,2.0545 15.04833,2.76281 4.99828,2.08841 11.05911,8.87592 13.39881,15.00529 2.82862,7.41024 3.0378,17.44861 0.44855,21.52548 -2.35208,3.70345 -9.96115,9.7598 -16.19722,12.89199 -9.31664,4.67949 -10.07752,8.86358 -5.71088,31.40435 7.514,38.78758 7.96879,51.34123 2.36006,65.1444 -6.62191,16.29663 -23.75471,33.79701 -37.58398,38.39036 -2.43298,0.80811 -8.35262,2.10476 -13.15477,2.88145 -4.80214,0.77669 -9.32396,1.90413 -10.04848,2.50543 -2.07341,1.72077 -2.95599,4.89473 -4.9147,17.67431 -2.11326,13.7879 -3.51137,18.45655 -8.00529,26.73173 -6.58132,12.11894 -14.08382,20.24613 -25.51827,27.64304 -18.436,11.92619 -39.26947,15.86845 -57.03187,10.79198 -9.5203,-2.72088 -17.74444,-6.22268 -22.96536,-9.77853 -5.62387,-3.83029 -16.34681,-14.16295 -19.64026,-18.92544 -5.68727,-8.22404 -11.26659,-25.69222 -18.60882,-58.26197 -5.48792,-24.34418 -7.15984,-30.04966 -9.39965,-32.07666 -1.5137,-1.36988 -2.4379,-1.36364 -11.23312,0.0758 -5.27105,0.86269 -17.96467,3.39408 -28.20806,5.62531 -10.24338,2.23123 -24.28148,5.16859 -31.19576,6.52745 -6.91429,1.35886 -23.04762,4.98369 -35.85186,8.05519 -12.80423,3.07151 -39.8328,8.87819 -60.06349,12.90374 -38.58595,7.67793 -51.98569,10.56287 -77.291,16.64064 -8.4508,2.02969 -19.1033,4.42403 -23.67225,5.32076 -11.03117,2.16504 -12.13232,3.26948 -11.44412,11.47831 0.2855,3.40551 2.83586,18.53991 5.66747,33.632 6.56927,35.01336 7.46448,41.53641 6.83769,49.82391 -0.96727,12.78955 -9.48104,28.62015 -21.86579,40.65749 -8.30056,8.06772 -14.81941,12.45814 -23.79355,16.02491 -15.00874,5.96521 -27.44039,7.41502 -40.68183,4.74442 z m 19.5912,-59.61735 c 4.79541,-2.47982 5.10332,-3.53497 4.8624,-16.66285 -0.317,-17.27393 -1.2414,-22.91197 -10.01376,-61.07534 -8.1984,-35.66638 -12.2264,-55.26354 -17.70469,-86.13757 -9.68004,-54.55374 -24.77149,-117.31346 -31.27859,-130.07603 -2.38607,-4.67984 -5.08942,-6.34725 -10.29073,-6.34725 -10.97176,0 -14.32397,10.83398 -10.14207,32.77813 1.0054,5.27574 2.91238,16.08748 4.23774,24.02611 2.6421,15.82564 6.66438,34.76375 12.55913,59.13227 5.47583,22.63667 10.98939,48.24531 18.5455,86.13757 7.02565,35.23215 13.77944,65.22229 18.73894,83.21004 3.15684,11.44968 5.71968,15.9454 9.54047,16.73587 2.86334,0.59238 8.04874,-0.2229 10.94566,-1.72095 z m -98.14595,-48.53042 c 4.84149,-2.29744 5.92049,-5.28103 5.91553,-16.35729 -0.005,-11.83992 -2.54019,-29.48945 -6.86739,-47.81504 -1.80836,-7.65838 -6.63396,-28.06972 -10.72353,-45.35853 -6.59459,-27.87887 -12.92169,-49.95711 -16.16645,-56.41244 -3.2318,-6.42951 -15.93267,-6.14176 -18.42649,0.41748 -1.18041,3.10471 -1.13982,25.82617 0.0639,35.77105 1.50892,12.46637 4.13503,24.75592 14.06284,65.81063 12.22177,50.54103 15.03939,60.0046 19.06335,64.02857 1.90873,1.90873 8.97408,1.86311 13.07823,-0.0844 z m 525.11154,-44.13715 c 3.33725,-1.24185 4.42562,-3.59694 4.87124,-10.54067 1.00428,-15.64875 -8.38741,-68.09785 -17.44978,-97.45058 -3.54574,-11.48459 -6.15579,-23.93832 -13.49494,-64.39081 -3.31235,-18.25727 -7.70937,-39.90476 -9.77116,-48.10552 -2.06179,-8.20076 -5.4282,-23.28461 -7.48092,-33.51966 -4.82765,-24.07112 -11.53216,-43.74392 -15.41588,-45.23424 -3.21966,-1.2355 -11.37658,-0.59731 -13.40973,1.04917 -6.69612,5.42262 -4.01808,28.89047 12.03458,105.46031 4.02656,19.20635 8.42645,40.78731 9.77753,47.95768 6.32987,33.59336 20.26705,95.61873 27.60243,122.8405 4.51322,16.74867 6.60803,21.53397 9.97247,22.78062 2.48983,0.92257 9.2068,0.47695 12.76416,-0.8468 z M 476.42229,540.70408 c 25.66612,-5.12916 54.78993,-11.22185 64.71957,-13.53932 9.92965,-2.31746 35.02534,-7.75845 55.76819,-12.09109 35.30616,-7.37454 60.05366,-12.81659 79.48337,-17.47867 4.95689,-1.18937 9.22287,-2.81929 10.69648,-4.08685 2.41341,-2.07592 2.44706,-2.2709 2.18262,-12.6467 -0.14771,-5.79606 -0.4337,-10.70341 -0.63552,-10.90523 -0.20183,-0.20182 -4.47533,-0.36179 -9.49668,-0.3555 -7.45892,0.009 -12.53815,0.78704 -27.75408,4.24945 -10.24338,2.3309 -33.08148,7.00977 -50.75132,10.39747 -17.66984,3.3877 -41.9746,8.42054 -54.01058,11.18408 -12.03598,2.76355 -42.83598,9.66401 -68.44445,15.33438 -66.88789,14.81069 -73.31254,16.61784 -75.0171,21.10117 -1.58562,4.1705 1.91249,16.72501 5.03972,18.08723 1.0992,0.4788 6.39855,0.69163 11.77633,0.47296 7.50708,-0.30528 20.61496,-2.56335 56.44345,-9.72338 z m 390.43184,-10.03213 c 3.15515,-2.20995 4.80026,-6.96876 5.38277,-15.57073 0.73156,-10.80295 -1.31437,-24.38107 -8.86059,-58.80492 -3.59281,-16.38942 -7.85508,-36.06268 -9.47171,-43.71836 -1.61663,-7.65568 -3.92211,-17.29378 -5.12328,-21.41799 -2.57039,-8.82533 -10.66655,-26.50264 -13.0405,-28.47285 -0.96721,-0.80272 -3.56844,-1.37493 -6.25029,-1.37493 -3.85704,0 -4.94699,0.41085 -6.79765,2.56238 -4.67825,5.43879 -5.36518,17.05011 -2.25996,38.20104 2.87176,19.56078 6.41982,35.16333 23.65916,104.04081 3.16035,12.62676 5.80096,19.09636 9.31517,22.8225 2.60241,2.75936 3.6882,3.25158 7.17275,3.25158 2.28901,0 5.06555,-0.67201 6.27413,-1.51853 z"
     id="path7"
     transform="scale(0.75)" />
</svg>
